<?xml version="1.0" encoding="utf-8"?>
<!-- Generator: Adobe Illustrator 23.0.1, SVG Export Plug-In . SVG Version: 6.00 Build 0)  -->
<svg version="1.1" xmlns="http://www.w3.org/2000/svg" xmlns:xlink="http://www.w3.org/1999/xlink" x="0px" y="0px"
	 viewBox="0 0 240 240" style="enable-background:new 0 0 240 240;" xml:space="preserve">
<style type="text/css">
	.st0{display:none;}
	.st1{display:inline;}
	.st2{fill:#FFFFFF;}
	.st3{display:inline;fill:#FFFFFF;}
	.st4{fill:none;stroke:#FFFFFF;stroke-width:4;stroke-linecap:round;stroke-linejoin:round;}
	.st5{fill:none;stroke:#FFFFFF;stroke-width:4;stroke-miterlimit:10;}
	.st6{fill:none;stroke:#FFFFFF;stroke-width:4;stroke-linecap:round;stroke-linejoin:round;stroke-miterlimit:10;}
	.st7{fill:none;stroke:#FFFFFF;stroke-width:3;stroke-linecap:round;stroke-linejoin:round;stroke-miterlimit:10;}
</style>
<g id="Layer_1">
</g>
<g id="Layer_2">
	<g>
		<line class="st6" x1="119.63" y1="213.78" x2="119.63" y2="96.94"/>
		<polyline class="st6" points="149.33,125.66 119.63,95.96 89.93,125.66 		"/>
	</g>
	<path class="st6" d="M144.16,155.77c2.61,0,5.24,0,7.91,0c6.09,0,12.51-0.37,18.52-0.37c13.01,0.01,25.03-7.23,32.12-18.21
		c17.07-26.41,1.1-67.83-32.12-67.83c-7.35,0-14.61,2.3-20.71,6.46c-1.08-24.63-23.65-43.3-47.5-39.44
		C77.2,40.45,61.45,67.88,70.34,92.3c-13.56,1.43-29.33,6.87-37.12,19.13c-6.46,10.17-3.73,21.91,4.58,29.98
		c16.01,15.54,38.1,14.59,58.37,14.4"/>
</g>
</svg>
